<svg enable-background="new 0 0 410 64" height="64" viewBox="0 0 410 64" width="410" xmlns="http://www.w3.org/2000/svg"><g fill="#fff"><path d="m13.32 15.01c6.36 0 13.87.92 17.01 1.96v46.45h-9.84v-17.94c-1.95 1.7-4.47 2.34-7.17 2.34-9.18 0-11.89-5.67-11.89-16.68 0-11.52 4.39-16.13 11.89-16.13zm2.16 25.4c2.01 0 3.22-.24 5.01-1.23v-17.03h-4.92c-4.21 0-4.3 5.04-4.3 8.68 0 6.34.16 9.58 4.21 9.58z"/><path d="m34.73 15.37h9.84v21.03c0 2.88 1.08 3.78 2.83 3.78 2.86 0 4.53-.75 6.22-2.52v-22.29h9.84v31.86h-8.06l-1.77-3.27c-2.98 1.83-4.65 3.81-9.51 3.81-7.8 0-9.39-5.19-9.39-11.55z"/><path d="m82.56 15.07c11.05 0 14.71 4.02 14.71 16.68 0 11.82-3.43 15.78-14.71 15.78-11.1 0-14.71-4.38-14.71-15.78 0-13.02 3.82-16.68 14.71-16.68zm0 24.86c4.1 0 4.88-.57 4.88-8.19 0-8.02-.6-9.09-4.88-9.09-4.33 0-4.87 1.09-4.87 9.09 0 7.38 1.03 8.19 4.87 8.19z"/><path d="m100.05 17.29 4.86-1.98 1.53-8.88h8.31v8.88h6.33v7.14h-6.33v11.58c0 4.5.98 5.43 2.48 6.09 0 0 3.12 1.26 3.54 1.26v5.88h-8.07c-4.75 0-7.78-2.97-7.78-11.43v-13.38h-4.86v-5.16z"/><path d="m138.17 15.13c9.84 0 13.98 1.17 13.98 11.73 0 6.06-3.36 8.22-9.12 8.22h-8.94c0 5.11 2.46 4.9 6.96 4.9 4.62 0 6 .02 10.5-.65v6.51c-4.36 1.78-11.82 1.68-16.8 1.68-8.1 0-10.5-4.98-10.5-16.38 0-13.49 3.72-16.01 13.92-16.01zm1.89 13.31c1.42 0 2.25-.82 2.25-2.17 0-3.19-.35-4-3.5-4-3.58 0-4.81.33-4.72 6.18h5.97z"/><path d="m155.33 23.89c0-4.92 2.1-8.82 8.28-8.82 7.21 0 15.28.03 17.5 1.86v5.98h-13.99c-1.54 0-1.95.38-1.95 1.69v.96c0 1.54.85 1.58 1.95 1.58h6.87c6.39 0 8.7 3.73 8.7 8.41v3.39c0 6.54-3.96 8.58-7.8 8.58-7.17 0-16.05-.04-18.24-1.95v-5.95h14.55c.76 0 1.65-.23 1.65-1.58v-.96c0-1.06-.27-1.63-1.65-1.63h-6.69c-5.64 0-9.18-2.62-9.18-8.8z"/></g><path d="m213.92 15.07c10.18 0 13.06 5.6 11.22 16.82-1.94 11.76-5.46 15.64-15.82 15.64-10.4 0-13.46-4.52-11.66-15.92 2.03-13.02 6.11-16.54 16.26-16.54zm-4.46 29c6.75 0 10.39-1.3 12.23-12.33 1.84-11.17-1.1-13.23-8.19-13.23-6.88 0-10.41 1.24-12.39 13.23-1.82 11.1 1.69 12.33 8.35 12.33z" fill="#0c0"/><path d="m234.63 15.37h2.37l.48 3.72c3.98-2.16 8.02-4.26 12.88-4.26 6.36 0 9.06 4.92 8.22 10.2l-3.54 22.2h-3.45l3.54-22.2c.66-4.22-1.52-6.75-5.33-6.75-4.96 0-7.79 1.22-12.71 3.5l-4.04 25.45h-3.45z" fill="#0c0"/><path d="m282.89 14.89c2.7 0 6.3.71 8.88 1.95v-16.71h9.82v47.1h-8.26l-1.6-3.09c-2.15 1.77-5.16 3.45-8.83 3.45-7.53 0-10.37-5.26-10.37-16.14-.01-10.91 1.61-16.56 10.36-16.56zm2.97 24.52c2.58 0 4.6-.59 5.87-1.68v-14.42c-1.49-.76-3.58-1.06-5.87-1.06-2.22 0-3.5 1.21-3.5 8.74 0 6.86 1.22 8.42 3.5 8.42z" fill="#fff"/><path d="m319.86 15.13c9.84 0 13.98 1.17 13.98 11.73 0 6.06-3.36 8.22-9.12 8.22h-8.94c0 5.11 2.46 4.9 6.96 4.9 4.62 0 6 .02 10.5-.65v6.51c-4.36 1.78-11.82 1.68-16.8 1.68-8.1 0-10.5-4.98-10.5-16.38 0-13.49 3.72-16.01 13.92-16.01zm1.89 13.31c1.42 0 2.25-.82 2.25-2.17 0-3.19-.34-4-3.5-4-3.58 0-4.81.33-4.72 6.18h5.97z" fill="#fff"/><path d="m346.11 15.37 5.87 20.82 6.12-20.82h10.44l-11.12 31.86h-11.19l-10.6-31.86z" fill="#fff"/><path d="m370.53 39.24h38.04v8.04h-38.04z" fill="#fff"/></svg>